PathFileType	3	(X/Y/Z)	D:\minhoCalibration\240510\subject4_KPNP\preferred\preferred04.trc
DataRate	CameraRate	NumFrames	NumMarkers	Units	OrigDataRate	OrigDataStartFrame	OrigNumFrames
200.0	200.0	31	10	mm	200.0	212	92	
Frame#	Time	Left_Ankle_Outer1			Left_Ankle_Inner1			Left_Knee_Outer1			Left_Knee_Inner1			Left_Wrist1			Right_Wrist1			Right_Knee_Inner1			Right_Knee_Outer1			Right_Ankle_Inner1			Right_Ankle_Outer1			
		X1	Y1	Z1	X2	Y2	Z2	X3	Y3	Z3	X4	Y4	Z4	X5	Y5	Z5	X6	Y6	Z6	X7	Y7	Z7	X8	Y8	Z8	X9	Y9	Z9	X10	Y10	Z10	
212	1.05	-510.15948	1161.0226	350.69604	-512.49603	1059.4696	341.02811	-263.48386	1060.5961	806.52429	-284.673	976.66406	786.53033	-355.42691	1205.7263	1188.5255	-416.81546	908.87445	1405.75	-248.91496	560.79742	1140.7361	-265.94421	563.36859	1254.7355	-488.02039	136.95544	1156.5728	-477.17679	141.78848	1212.2375
213	1.055	-464.65219	1170.4492	325.98004	-466.62894	1068.0485	315.61655	-270.30945	1064.3167	805.03461	-293.95804	982.25879	782.65515	-357.64774	1206.9657	1188.5842	-414.70978	907.81384	1404.4834	-252.15599	559.17969	1135.0963	-265.94177	562.4765	1249.1327	-489.64752	135.55634	1156.2347	-478.13739	140.58438	1211.7842
214	1.06	-424.03598	1177.1102	312.90088	-435.48978	1077.4062	303.88977	-276.33087	1069.769	802.32635	-303.8959	987.30414	779.15509	-360.37735	1208.7405	1188.1545	-411.96365	906.7616	1402.6001	-255.09521	557.44574	1129.3048	-265.82141	561.56378	1243.4886	-491.5777	134.00011	1156.2643	-478.54932	139.29173	1211.3379
215	1.065	-397.77548	1186.7029	309.89035	-419.54965	1085.3396	301.89575	-280.51987	1078.4764	798.87329	-313.18982	991.83508	775.664	-364.4201	1209.8871	1187.4893	-408.60541	905.81531	1400.3461	-257.68143	555.98511	1123.5197	-265.51413	560.61548	1237.5886	-492.79541	132.68611	1156.5237	-479.06796	138.4594	1211.662
216	1.07	-387.13199	1194.5059	308.48584	-417.95505	1096.4739	303.18085	-283.16797	1090.1322	795.38831	-320.978	993.70007	772.65698	-368.74316	1211.1942	1185.8596	-404.65601	905.12152	1397.5642	-259.72769	554.44177	1117.3441	-264.95831	559.56976	1231.4915	-493.58606	131.36531	1156.7267	-479.33643	137.55731	1211.767
217	1.075	-386.78241	1197.2257	309.44772	-422.89697	1099.4761	308.52213	-283.0426	1095.7749	793.43713	-323.0614	997.66431	770.77942	-373.27979	1212.7714	1183.6384	-400.30606	904.6344	1394.3733	-261.7984	553.23871	1111.2848	-264.33734	558.54089	1225.0786	-494.55298	130.52701	1157.5605	-479.12653	137.04163	1212.2963
218	1.08	-394.18512	1197.8536	310.69199	-427.056	1097.8959	311.16461	-278.52185	1097.1724	792.73877	-314.2186	999.87067	769.59332	-378.48904	1213.6324	1180.9659	-395.64398	904.25861	1391.308	-263.30737	552.01447	1104.76	-263.55029	557.6709	1218.3442	-494.98407	130.01028	1158.35	-478.62097	136.85832	1212.9207
219	1.085	-406.26123	1193.5946	310.86697	-426.39905	1091.2651	311.82831	-272.6496	1097.9547	792.39838	-302.96295	1002.0748	769.28387	-384.18027	1214.1233	1178.3436	-390.93799	903.77118	1387.7047	-264.58267	551.22192	1098.1272	-262.59155	556.94897	1211.1108	-495.32935	129.42531	1159.2922	-477.65771	136.98235	1213.3494
220	1.09	-419.53146	1186.4491	311.9108	-424.6965	1081.7922	311.73285	-267.14459	1097.3699	793.61591	-294.16678	1007.0496	770.59821	-389.12698	1214.1636	1174.8676	-386.39105	903.07501	1383.9846	-265.96561	550.63	1091.2628	-261.31149	556.56171	1204.0255	-495.20905	129.14873	1159.7673	-476.52054	137.17784	1213.5477
221	1.095	-430.384	1177.7426	312.12689	-422.94052	1072.9714	311.34171	-264.448	1095.8778	796.24866	-287.95285	1013.3467	772.71429	-395.83514	1213.4473	1172.5138	-382.06985	902.12378	1380.0688	-267.96008	550.5022	1084.6506	-260.09628	556.32837	1196.2484	-494.68585	128.68987	1160.0326	-475.28748	137.41887	1213.5548
222	1.1	-436.51248	1169.2123	311.10025	-422.61743	1064.2578	310.07648	-265.3862	1096.1263	798.53033	-285.32272	1019.5808	774.95245	-402.12094	1213.0011	1170.1011	-377.9567	900.83966	1375.8828	-269.76407	550.60577	1077.6169	-259.01254	556.48083	1188.7272	-494.90234	128.40707	1160.5281	-474.08801	137.73233	1213.3669
223	1.105	-440.23468	1160.0674	309.05533	-422.30872	1056.1075	310.12149	-269.06265	1099.906	800.81116	-286.55215	1025.2919	775.31226	-408.53317	1211.7859	1167.7784	-374.23575	899.19061	1371.7223	-271.71664	550.90002	1070.5962	-257.93881	556.82526	1181.3816	-494.87381	128.23468	1160.6689	-472.76193	137.95316	1212.8237
224	1.11	-442.9866	1150.5481	305.75412	-421.09232	1046.7448	309.8483	-274.78183	1107.4465	802.48792	-289.71118	1029.696	774.52289	-415.19391	1210.6733	1165.7939	-371.02667	897.33313	1367.5896	-273.63931	550.83832	1063.4376	-257.41257	557.24268	1173.8093	-494.92432	128.49799	1160.5762	-471.31241	138.26794	1212.6046
225	1.115	-444.98407	1140.1066	301.7966	-418.93469	1037.6255	308.91608	-281.89822	1116.943	803.14294	-292.4205	1033.63	774.2749	-421.55728	1209.3395	1163.9834	-368.24774	895.09009	1363.2162	-276.28619	551.08911	1056.7533	-256.8595	557.74292	1166.6895	-495.06061	128.50755	1160.3457	-470.45776	139.01372	1211.6572
226	1.12	-445.46796	1128.6351	297.65024	-416.78244	1028.6385	309.59976	-291.26819	1125.5179	802.74255	-293.44748	1037.5842	774.58618	-427.33353	1207.8613	1162.2349	-365.95493	892.76355	1358.7773	-278.75482	551.26636	1050.1179	-256.54956	557.86084	1159.5747	-495.47131	128.56374	1160.0834	-469.74277	139.50591	1210.8838
227	1.125	-446.97049	1117.0983	294.91455	-413.741	1018.858	309.78537	-303.04761	1132.9126	800.76959	-294.33133	1041.6345	775.01526	-433.83575	1206.5687	1161.166	-364.01907	890.53894	1354.2802	-281.79065	550.97992	1043.7358	-256.71576	557.81561	1152.5101	-496.19031	128.1882	1159.6959	-469.15927	139.89017	1209.7118
228	1.13	-447.83405	1103.9108	292.34451	-409.08093	1008.2313	309.53873	-317.11194	1138.4307	797.07983	-295.17331	1045.9606	775.43201	-439.40753	1205.5366	1160.4822	-362.25082	888.3139	1349.9205	-285.17493	551.17676	1037.9457	-256.75372	557.47296	1145.79	-496.47214	128.50708	1158.9961	-468.79388	140.25945	1208.2462
229	1.135	-450.19022	1089.8534	291.37091	-402.9075	998.12323	308.61389	-331.21152	1140.74	792.88678	-296.37854	1049.9658	776.07275	-445.03214	1204.5366	1160.1782	-360.51776	886.40002	1345.6748	-288.50406	551.38019	1032.3613	-256.80927	556.93304	1139.5061	-497.54019	128.2515	1157.567	-468.79382	140.52042	1206.5135
230	1.14	-452.29526	1074.2924	290.85297	-396.57532	987.15424	308.79739	-344.31271	1140.4598	789.46973	-297.37997	1054.2767	776.82141	-450.25397	1203.3379	1160.3571	-358.50632	884.41937	1341.3105	-292.26334	551.55743	1027.4999	-256.97699	556.16467	1133.45	-498.61646	127.94274	1155.9452	-469.11899	140.58783	1204.524
231	1.145	-453.87088	1057.4926	290.88153	-389.87744	976.32227	309.06317	-355.67926	1138.6394	787.54279	-299.08817	1058.1454	777.41608	-455.77499	1202.7292	1160.6843	-356.20288	882.6189	1337.3774	-295.53922	551.70221	1022.7246	-257.08829	555.23804	1128.2065	-499.35416	127.21342	1154.5919	-469.86694	140.52554	1202.5172
232	1.15	-455.67096	1041.0841	291.3999	-384.0675	966.2887	309.88556	-365.65552	1136.369	786.89166	-301.47415	1060.6775	778.03271	-459.92017	1201.7906	1161.9139	-353.39417	880.95331	1333.6954	-299.22156	551.54303	1018.7289	-257.67096	554.27295	1123.0255	-500.45407	126.54704	1152.9513	-470.7728	140.16867	1200.3401
233	1.155	-456.95773	1024.889	291.62772	-379.51343	956.14471	310.10419	-373.78488	1133.7537	786.67883	-306.54016	1061.5422	778.927	-464.29532	1200.5479	1163.1211	-350.06537	879.29089	1330.5693	-302.22107	551.02155	1014.7775	-258.34402	553.28156	1118.5359	-501.9043	125.82185	1151.3157	-471.97281	139.70792	1198.4949
234	1.16	-458.55777	1009.5356	291.98206	-376.36026	946.24225	310.46732	-380.78668	1130.5942	786.17944	-311.23108	1060.9043	778.67212	-467.3714	1197.5898	1164.0975	-346.34412	878.12689	1327.814	-305.97766	550.40082	1011.9158	-258.90933	552.23016	1114.9216	-503.26752	124.73942	1149.8726	-473.2334	139.04791	1196.9023
235	1.165	-459.15784	993.83093	292.1853	-375.16705	933.974	312.70212	-386.64493	1127.3577	785.43396	-316.30286	1059.3678	778.42633	-471.64645	1195.5714	1164.6718	-342.30667	877.32562	1324.8536	-308.31665	549.43011	1008.7189	-260.19424	551.09998	1111.3621	-504.88007	123.80548	1148.8838	-474.46228	138.24994	1195.7318
236	1.17	-460.03152	978.39984	292.59103	-374.84448	921.36914	315.20825	-392.43384	1123.9142	784.59186	-321.77457	1056.9701	778.31244	-475.87842	1193.4006	1164.853	-338.33694	876.96899	1322.2567	-310.7764	548.01532	1006.1275	-261.26013	549.93567	1108.3716	-506.16806	122.47803	1148.3752	-475.65985	137.33038	1195.1006
237	1.175	-460.75229	962.93127	293.48358	-374.50079	908.64844	317.98325	-398.67398	1120.2524	783.31781	-327.51593	1054.3381	778.41632	-479.26688	1190.2644	1165.2782	-334.39432	876.97662	1319.5463	-312.87567	546.38953	1003.9488	-262.3761	548.72784	1105.712	-507.55774	121.3166	1148.5011	-476.78333	136.28299	1194.9913
238	1.18	-461.18283	947.06311	294.84622	-373.707	895.88312	321.07776	-405.48932	1116.2451	781.79059	-333.46988	1051.7833	778.77209	-482.9993	1187.2197	1165.5156	-330.63385	877.27338	1317.0621	-314.86295	544.58472	1001.8077	-263.49612	547.3844	1103.5292	-508.97604	119.76617	1149.051	-477.69077	135.11337	1195.3756
239	1.185	-461.64728	930.58093	296.74609	-372.49951	883.36768	324.12921	-413.86194	1111.7019	779.97015	-339.45413	1048.8856	778.92389	-487.211	1184.1168	1165.6642	-327.02655	877.76367	1314.8679	-316.58899	542.52502	1000.7534	-264.57712	545.83948	1101.589	-509.91553	118.18774	1150.2687	-478.3385	133.8495	1196.2511
240	1.19	-462.16571	913.86841	298.82938	-370.8288	871.62048	326.88736	-422.45132	1106.6454	777.77045	-344.59662	1046.3893	778.97424	-490.78165	1180.4653	1165.9468	-323.46484	878.31384	1312.8353	-318.13028	540.16528	999.1778	-265.68704	543.9776	1099.7953	-511.11728	116.74976	1151.8958	-478.83203	132.53053	1197.5143
241	1.195	-463.59488	897.59094	301.97998	-370.65002	859.75403	329.90329	-431.32224	1101.1884	775.52094	-351.3103	1043.6985	778.30585	-493.92776	1176.6735	1166.3107	-320.13895	878.86292	1311.2024	-319.21729	537.59607	997.97119	-266.39532	541.96838	1098.7719	-512.3125	115.60234	1154.323	-479.16617	131.05515	1199.2213
242	1.2	-465.53592	880.69073	305.54913	-370.22867	849.18475	332.56213	-440.92944	1095.1685	773.72943	-357.0499	1041.7058	777.33795	-497.35037	1172.8367	1166.5389	-316.94305	879.19733	1309.572	-320.74225	534.83185	997.62598	-267.43356	539.73676	1097.1271	-512.57739	113.53247	1156.262	-479.23752	129.60663	1201.1888
